<svg xmlns="http://www.w3.org/2000/svg" width="1792" height="1344" viewBox="0 0 1792 1344" version="1.1"><path d="M 791 449.060 C 761.878 452.259, 729.577 462.064, 705.042 475.151 C 650.079 504.469, 607.914 555.042, 590.530 612.500 C 584.099 633.758, 581.260 649.801, 580.003 671.995 C 574.947 761.297, 617.441 845.728, 692 894.518 C 704.739 902.854, 728.655 914.326, 743.543 919.242 C 768.483 927.477, 789.370 930.954, 814 930.972 C 847.959 930.997, 876.983 924.856, 903.500 912.036 C 913.398 907.250, 929.989 897.348, 932 895.026 C 932.275 894.708, 934.525 892.926, 937 891.064 C 941.931 887.356, 965 864.289, 965 863.067 C 965 862.648, 965.949 861.225, 967.109 859.903 C 970.580 855.947, 979.514 841.871, 983.897 833.454 C 986.154 829.120, 988 825.489, 988 825.385 C 988 825.280, 984.737 824.209, 980.750 823.005 C 966.163 818.598, 950.198 808.956, 939.649 798.181 L 934.798 793.226 947.008 781.369 C 953.724 774.847, 960.550 767.830, 962.178 765.775 L 965.137 762.039 962.319 763.282 C 955.794 766.161, 909.281 790.227, 884 803.805 C 879.325 806.316, 874.375 808.917, 873 809.585 C 840.352 825.452, 809.285 827.634, 776.646 816.353 C 734.914 801.930, 704.019 767.730, 691.861 722.500 C 688.715 710.795, 688.634 709.972, 688.568 689 C 688.497 666.423, 688.912 663.033, 693.715 647 C 705.851 606.489, 737.425 574.165, 778.169 560.539 C 803.323 552.128, 828.308 552.117, 855.479 560.505 L 860.458 562.042 856.330 557.771 C 851.783 553.065, 846.313 544.690, 843.745 538.500 C 840.834 531.483, 840.011 526.736, 840.006 516.925 C 840 507.086, 842.647 496.360, 846.632 490.074 C 853.469 479.290, 862.434 471.120, 872.485 466.511 C 876.158 464.826, 878.148 464.203, 886.500 462.123 C 889.434 461.393, 889.368 461.327, 883.500 459.109 C 875.783 456.192, 860.211 452.449, 847.500 450.455 C 835.474 448.569, 802.810 447.762, 791 449.060" stroke="none" fill="#030514" fill-rule="evenodd"/><path d="M 1129.750 399.669 C 1127.688 399.918, 1126 400.572, 1126 401.123 C 1126 401.675, 1125.213 402.046, 1124.250 401.948 C 1120.720 401.589, 1118.896 402.022, 1119.541 403.067 C 1119.904 403.654, 1119.593 404.050, 1118.850 403.948 C 1116.105 403.571, 1114.898 404.026, 1115.605 405.170 C 1116.080 405.939, 1115.798 406.136, 1114.783 405.747 C 1113.933 405.421, 1111.555 406.297, 1109.499 407.694 C 1106.593 409.669, 1106.066 410.446, 1107.131 411.183 C 1108.125 411.871, 1107.936 411.974, 1106.443 411.559 C 1104.991 411.156, 1103.538 411.872, 1101.506 413.994 C 1099.922 415.647, 1098.985 417, 1099.424 417 C 1099.863 417, 1099.291 417.788, 1098.153 418.750 C 1097.016 419.712, 1095.953 421.159, 1095.792 421.965 C 1095.632 422.771, 1094.770 424.121, 1093.877 424.965 C 1091.525 427.189, 1089.033 434.351, 1089.647 437.121 C 1090.065 439.009, 1089.952 439.191, 1089.102 438 C 1088.252 436.809, 1087.995 437.222, 1087.859 440 C 1087.764 441.925, 1087.556 444.850, 1087.397 446.500 C 1086.892 451.718, 1088.146 460.363, 1089.189 458.852 C 1089.803 457.961, 1089.903 458.608, 1089.481 460.750 C 1088.967 463.363, 1089.165 464, 1090.492 464 C 1091.592 464, 1092.082 464.752, 1091.961 466.250 C 1091.601 470.691, 1092.047 471.893, 1095.250 475.120 C 1097.037 476.921, 1097.825 477.993, 1097 477.502 C 1096.175 477.012, 1096.697 478.161, 1098.161 480.055 C 1099.624 481.950, 1101.568 483.432, 1102.479 483.350 C 1103.450 483.262, 1103.934 483.729, 1103.647 484.478 C 1102.995 486.176, 1104.921 488, 1107.367 488 C 1108.448 488, 1109.036 488.298, 1108.672 488.661 C 1107.653 489.681, 1114.962 494.250, 1117.613 494.250 C 1118.906 494.250, 1119.720 494.644, 1119.423 495.125 C 1118.853 496.048, 1120.548 496.309, 1125.500 496.063 C 1127.837 495.946, 1128.168 496.141, 1127 496.941 C 1125.830 497.743, 1126.271 498.006, 1129 498.136 C 1130.925 498.227, 1134.075 498.398, 1136 498.516 C 1141.917 498.877, 1149.749 497.798, 1147.474 496.935 C 1146.090 496.410, 1146.695 496.208, 1149.500 496.260 C 1154.123 496.344, 1161.707 493.010, 1165.989 489.010 C 1167.607 487.499, 1169.171 486.504, 1169.465 486.798 C 1169.759 487.093, 1170 486.583, 1170 485.667 C 1170 484.750, 1170.492 484.113, 1171.093 484.250 C 1171.694 484.388, 1172.707 483.622, 1173.343 482.549 C 1173.979 481.476, 1175.400 479.754, 1176.500 478.723 C 1177.600 477.691, 1177.938 477.133, 1177.250 477.483 C 1176.563 477.832, 1176 477.641, 1176 477.059 C 1176 476.477, 1176.702 476, 1177.559 476 C 1178.416 476, 1178.840 475.550, 1178.500 475 C 1178.160 474.450, 1178.471 473.993, 1179.191 473.985 C 1180.142 473.974, 1180.090 473.704, 1179 473 C 1178 472.354, 1177.917 472.026, 1178.750 472.015 C 1179.438 472.007, 1180 471.100, 1180 470 C 1180 468.855, 1180.667 468, 1181.559 468 C 1182.416 468, 1182.864 467.588, 1182.553 467.085 C 1182.242 466.582, 1182.499 466, 1183.125 465.792 C 1183.789 465.570, 1184.221 463.352, 1184.165 460.456 C 1184.096 456.966, 1184.348 455.944, 1185.018 457 C 1185.660 458.012, 1185.974 455.490, 1185.985 449.250 C 1185.993 444.163, 1185.595 440, 1185.100 440 C 1184.605 440, 1184.200 438.367, 1184.200 436.371 C 1184.200 434.375, 1183.667 432.412, 1183.015 432.009 C 1182.363 431.606, 1181.868 430.989, 1181.915 430.638 C 1182.209 428.441, 1181.798 427.149, 1180.250 425.400 C 1179.287 424.312, 1178.372 422.764, 1178.215 421.961 C 1178.058 421.157, 1176.595 419.269, 1174.965 417.764 C 1173.334 416.259, 1172 414.545, 1172 413.955 C 1172 413.365, 1171.550 413.160, 1171 413.500 C 1170.450 413.840, 1170 413.641, 1170 413.059 C 1170 412.477, 1169.298 412, 1168.441 412 C 1167.584 412, 1167.145 411.574, 1167.467 411.054 C 1168.305 409.697, 1161.063 405.038, 1159.217 405.747 C 1158.202 406.136, 1157.920 405.939, 1158.395 405.170 C 1159.102 404.026, 1157.895 403.571, 1155.150 403.948 C 1154.407 404.050, 1154.055 403.720, 1154.367 403.215 C 1155.707 401.048, 1138.676 398.594, 1129.750 399.669 M 1188.244 521.722 C 1187.553 521.969, 1187.261 522.612, 1187.594 523.152 C 1187.928 523.692, 1187.593 524.050, 1186.850 523.948 C 1184.184 523.582, 1182.894 524.019, 1183.541 525.067 C 1183.904 525.654, 1183.593 526.050, 1182.850 525.948 C 1180.105 525.571, 1178.898 526.026, 1179.605 527.170 C 1180.093 527.960, 1179.780 528.130, 1178.641 527.693 C 1177.636 527.307, 1176.232 527.768, 1175.165 528.835 C 1174.180 529.820, 1172.933 530.478, 1172.392 530.297 C 1171.852 530.117, 1170.512 530.764, 1169.416 531.735 C 1168.319 532.706, 1166.764 533.646, 1165.961 533.825 C 1165.157 534.004, 1164.349 534.569, 1164.165 535.081 C 1163.980 535.593, 1163.454 535.781, 1162.995 535.497 C 1162.537 535.214, 1161.552 535.548, 1160.807 536.241 C 1160.062 536.933, 1158.792 537.649, 1157.986 537.830 C 1157.179 538.012, 1156.239 538.613, 1155.898 539.166 C 1155.556 539.718, 1154.989 540.132, 1154.638 540.085 C 1152.580 539.810, 1151.964 540.133, 1152.595 541.155 C 1153.027 541.852, 1152.871 542.038, 1152.202 541.625 C 1150.804 540.761, 1140.899 546.028, 1141.647 547.238 C 1141.952 547.731, 1141.593 548.050, 1140.850 547.948 C 1138.122 547.574, 1136.899 548.027, 1137.595 549.155 C 1138.016 549.835, 1137.872 550.039, 1137.245 549.651 C 1135.736 548.719, 1132.881 549.999, 1133.660 551.259 C 1134.019 551.841, 1133.834 552.015, 1133.245 551.651 C 1132.659 551.290, 1131.385 551.299, 1130.413 551.672 C 1128.768 552.303, 1128.779 552.402, 1130.573 553.105 C 1132.277 553.772, 1132.210 553.881, 1130 554.048 C 1128.625 554.152, 1127.162 554.184, 1126.750 554.118 C 1126.338 554.053, 1126 554.450, 1126 555 C 1126 555.550, 1125.662 555.947, 1125.250 555.882 C 1124.838 555.816, 1123.825 555.823, 1123 555.897 C 1121.667 556.016, 1121.667 556.150, 1123 557.102 C 1124.203 557.961, 1124.051 558.075, 1122.232 557.676 C 1120.885 557.380, 1119.291 557.852, 1118.304 558.839 C 1117.390 559.753, 1116.479 560.341, 1116.279 560.146 C 1115.643 559.530, 1110 562.204, 1110 563.121 C 1110 563.605, 1109.662 563.947, 1109.250 563.882 C 1108.838 563.816, 1107.825 563.823, 1107 563.897 C 1105.667 564.016, 1105.667 564.150, 1107 565.102 C 1108.217 565.971, 1108.093 566.085, 1106.344 565.705 C 1103.896 565.173, 1098.586 568.213, 1099.742 569.485 C 1100.159 569.943, 1099.785 570.064, 1098.912 569.753 C 1096.915 569.041, 1090.824 571.906, 1091.614 573.185 C 1091.937 573.707, 1091.593 574.050, 1090.850 573.948 C 1088.105 573.571, 1086.898 574.026, 1087.605 575.170 C 1088.088 575.952, 1087.787 576.132, 1086.696 575.714 C 1085.798 575.369, 1084.773 575.559, 1084.417 576.135 C 1084.061 576.711, 1083.825 620.066, 1083.893 672.481 C 1084.003 757.246, 1083.847 767.845, 1082.484 768.368 C 1081.391 768.787, 1081.125 769.753, 1081.556 771.728 C 1082.022 773.859, 1081.915 774.153, 1081.096 773 C 1080.221 771.768, 1080.007 771.947, 1079.900 774 C 1079.828 775.375, 1079.842 777.400, 1079.930 778.500 C 1080.063 780.163, 1079.916 780.247, 1079.060 779 C 1078.191 777.734, 1078.004 777.812, 1077.858 779.500 C 1077.763 780.600, 1077.705 782.058, 1077.730 782.739 C 1077.754 783.421, 1077.375 783.732, 1076.887 783.430 C 1075.976 782.867, 1075.599 784.347, 1075.977 787 C 1076.094 787.825, 1075.844 788.159, 1075.420 787.742 C 1074.403 786.740, 1071.035 791.927, 1071.654 793.542 C 1071.919 794.233, 1071.586 795.138, 1070.914 795.553 C 1070.082 796.068, 1069.924 795.860, 1070.422 794.905 C 1070.824 794.132, 1070.221 794.559, 1069.082 795.854 C 1067.943 797.149, 1067.303 798.681, 1067.660 799.259 C 1068.017 799.836, 1067.850 800.025, 1067.288 799.678 C 1066.019 798.894, 1062.714 802.381, 1063.748 803.414 C 1064.162 803.828, 1063.825 804.017, 1063 803.833 C 1062.175 803.650, 1061.613 804.063, 1061.750 804.750 C 1061.888 805.438, 1061.438 805.888, 1060.750 805.750 C 1060.063 805.613, 1059.613 806.063, 1059.750 806.750 C 1059.888 807.438, 1059.438 807.888, 1058.750 807.750 C 1058.063 807.613, 1057.624 808.096, 1057.775 808.824 C 1057.926 809.553, 1057.592 809.866, 1057.033 809.520 C 1056.474 809.175, 1054.980 809.929, 1053.713 811.196 C 1052.446 812.463, 1050.980 813.725, 1050.455 814 C 1049.930 814.275, 1049.598 814.795, 1049.718 815.155 C 1049.838 815.515, 1049.253 816.073, 1048.416 816.394 C 1047.561 816.722, 1047.160 816.550, 1047.500 816 C 1047.846 815.440, 1047.423 815.284, 1046.509 815.635 C 1045.632 815.972, 1045.151 816.484, 1045.441 816.775 C 1046.049 817.383, 1042.964 819.921, 1041.559 819.968 C 1041.041 819.986, 1041.491 819.342, 1042.559 818.538 C 1043.626 817.735, 1041.507 818.297, 1037.850 819.788 C 1034.192 821.280, 1031.336 822.725, 1031.504 823 C 1031.672 823.275, 1030.205 823.590, 1028.244 823.701 C 1026.283 823.811, 1024.414 824.320, 1024.089 824.832 C 1023.765 825.344, 1016.173 825.798, 1007.218 825.842 C 990.304 825.925, 988 826.475, 988 830.429 C 988 831.293, 987.550 832, 987 832 C 986.450 832, 986 832.681, 986 833.514 C 986 835.151, 984.215 838.641, 982.316 840.717 C 981.664 841.429, 980.846 842.909, 980.498 844.006 C 980.150 845.103, 979.419 846, 978.874 846 C 978.328 846, 978.160 846.450, 978.500 847 C 978.840 847.550, 978.416 848, 977.559 848 C 976.667 848, 976 848.855, 976 850 C 976 851.100, 975.550 852, 975 852 C 974.450 852, 974 852.674, 974 853.499 C 974 854.323, 972.200 856.852, 970 859.119 C 967.800 861.386, 966 863.862, 966 864.621 C 966 865.379, 965.550 866, 965 866 C 964.450 866, 964 866.828, 964 867.839 C 964 868.855, 962.823 870.215, 961.371 870.877 C 959.925 871.536, 958.991 872.325, 959.297 872.630 C 959.914 873.247, 948.452 884.836, 945.424 886.657 C 944.366 887.293, 943.612 888.306, 943.750 888.907 C 943.887 889.508, 943.662 889.947, 943.250 889.882 C 941.257 889.567, 939.944 890.101, 940.500 891 C 940.840 891.550, 940.621 892, 940.014 892 C 939.406 892, 937.784 893.125, 936.409 894.500 C 935.034 895.875, 933.500 897, 933 897 C 932.500 897, 930.966 898.125, 929.591 899.500 C 928.216 900.875, 926.395 902, 925.545 902 C 924.695 902, 924 902.450, 924 903 C 924 903.550, 923.199 904, 922.221 904 C 921.242 904, 919.793 904.900, 919 906 C 918.207 907.100, 916.731 908, 915.720 908 C 914.709 908, 914.160 908.450, 914.500 909 C 914.840 909.550, 914.416 910, 913.559 910 C 912.506 910, 912.026 910.892, 912.079 912.750 C 912.122 914.263, 912.376 914.963, 912.644 914.306 C 913.266 912.776, 916 913.788, 916 915.548 C 916 917.445, 917.964 918.414, 921.471 918.248 C 923.698 918.142, 924.012 918.301, 922.655 918.848 C 921.002 919.515, 921.085 919.718, 923.452 920.796 C 926.614 922.237, 928.097 922.355, 926 921 C 925.058 920.391, 924.952 920.025, 925.715 920.015 C 926.383 920.007, 927.411 920.900, 928 922 C 928.589 923.100, 929.617 923.993, 930.285 923.985 C 931.048 923.975, 930.942 923.609, 930 923 C 928.718 922.172, 928.754 922.028, 930.250 922.015 C 931.212 922.007, 932 922.661, 932 923.469 C 932 924.428, 932.577 924.716, 933.664 924.299 C 934.708 923.898, 935.083 924.057, 934.670 924.725 C 933.828 926.087, 936.487 927.134, 938.664 926.299 C 939.783 925.869, 940.091 926.043, 939.605 926.830 C 939.102 927.644, 940.040 928.005, 942.691 928.015 C 945.519 928.027, 946.113 928.280, 945 929 C 943.703 929.838, 943.725 929.971, 945.167 929.985 C 946.083 929.993, 947.060 929.438, 947.338 928.750 C 947.654 927.966, 947.872 928.118, 947.921 929.156 C 947.978 930.341, 948.641 930.672, 950.250 930.320 C 952.058 929.923, 952.205 930.037, 951 930.898 C 949.397 932.043, 950.864 932.319, 957.500 932.123 C 959.933 932.051, 960.132 932.188, 958.554 932.849 C 956.671 933.637, 956.677 933.682, 958.725 934.218 C 959.891 934.523, 963.016 934.616, 965.672 934.425 C 969.638 934.140, 969.965 934.229, 967.500 934.921 L 964.500 935.763 967.500 935.988 C 969.150 936.111, 971.850 936.145, 973.500 936.063 C 975.837 935.946, 976.168 936.141, 975 936.941 C 973.391 938.044, 975.948 938.309, 987 938.188 C 991.314 938.140, 991.853 938.285, 989.500 938.861 C 984.770 940.017, 1010.710 941.090, 1024 940.288 C 1032.120 939.798, 1034.618 939.377, 1032.500 938.857 C 1030.283 938.313, 1031.067 938.152, 1035.500 938.243 C 1045.721 938.451, 1048.709 938.113, 1047 936.941 C 1045.832 936.141, 1046.163 935.946, 1048.500 936.063 C 1054.536 936.363, 1057.119 936.002, 1056.468 934.948 C 1056.073 934.309, 1056.737 933.977, 1058.159 934.103 C 1059.446 934.218, 1061.625 934.209, 1063 934.085 C 1065.333 933.874, 1065.367 933.799, 1063.500 932.950 C 1061.795 932.174, 1061.942 932.059, 1064.500 932.171 C 1070.280 932.423, 1072.611 932.040, 1071.103 931.085 C 1070.150 930.481, 1070.906 930.200, 1073.482 930.200 C 1075.559 930.200, 1077.538 929.817, 1077.879 929.350 C 1078.221 928.883, 1079.175 928.354, 1080 928.175 C 1080.825 927.996, 1081.651 927.431, 1081.835 926.919 C 1082.020 926.407, 1082.553 926.224, 1083.019 926.512 C 1084.175 927.226, 1092 924.020, 1092 922.832 C 1092 922.310, 1092.414 922.138, 1092.919 922.450 C 1093.425 922.763, 1094.448 922.452, 1095.193 921.759 C 1095.938 921.067, 1097.208 920.351, 1098.014 920.170 C 1098.821 919.988, 1099.761 919.387, 1100.102 918.834 C 1100.444 918.282, 1101.011 917.868, 1101.362 917.915 C 1103.386 918.186, 1104.043 917.878, 1103.459 916.933 C 1103.096 916.346, 1103.407 915.950, 1104.150 916.052 C 1104.892 916.154, 1106.175 916.177, 1107 916.103 C 1108.333 915.984, 1108.333 915.862, 1107 915 C 1105.817 914.235, 1106.040 914.027, 1108.061 914.015 C 1109.470 914.007, 1111.513 913.212, 1112.600 912.250 C 1113.688 911.288, 1115.236 910.368, 1116.039 910.208 C 1116.843 910.047, 1118.338 908.922, 1119.363 907.708 C 1120.387 906.493, 1121.512 905.674, 1121.863 905.887 C 1122.213 906.099, 1122.944 905.312, 1123.487 904.137 C 1124.030 902.961, 1124.844 902, 1125.296 902 C 1125.748 902, 1125.785 902.539, 1125.378 903.197 C 1124.972 903.855, 1126.075 903.370, 1127.831 902.120 C 1129.587 900.870, 1130.760 899.420, 1130.437 898.899 C 1130.115 898.377, 1130.447 898.074, 1131.176 898.225 C 1131.904 898.376, 1132.376 897.904, 1132.225 897.176 C 1132.068 896.416, 1132.430 896.148, 1133.075 896.546 C 1134.681 897.539, 1153.375 878.440, 1152.419 876.783 C 1152.012 876.077, 1152.048 875.834, 1152.498 876.241 C 1153.845 877.462, 1155.999 874.943, 1156.015 872.128 C 1156.026 870.294, 1156.288 869.906, 1156.881 870.842 C 1157.530 871.865, 1158.240 871.472, 1159.866 869.188 C 1161.040 867.540, 1162 865.698, 1162 865.096 C 1162 864.493, 1162.344 864, 1162.764 864 C 1163.785 864, 1168.568 856.082, 1168.250 854.917 C 1168.113 854.413, 1168.367 854, 1168.816 854 C 1170.195 854, 1174.408 845.657, 1174.214 843.311 C 1174.113 842.094, 1174.469 840.828, 1175.004 840.498 C 1175.561 840.153, 1175.741 840.666, 1175.425 841.698 C 1175.121 842.689, 1175.642 842.165, 1176.582 840.532 C 1177.523 838.900, 1178.256 836.313, 1178.213 834.782 C 1178.165 833.089, 1178.656 832, 1179.469 832 C 1180.886 832, 1183.318 826.324, 1182.482 824.971 C 1182.210 824.531, 1182.532 823.989, 1183.197 823.768 C 1183.891 823.536, 1184.360 821.727, 1184.298 819.526 C 1184.224 816.928, 1184.477 816.142, 1185.079 817.094 C 1186.018 818.577, 1186.308 816.744, 1186.123 810.500 C 1186.047 807.925, 1186.164 807.783, 1186.947 809.500 C 1187.752 811.265, 1187.880 811.148, 1188.036 808.500 C 1188.133 806.850, 1188.145 804.150, 1188.063 802.500 C 1187.955 800.327, 1188.174 799.885, 1188.858 800.898 C 1189.511 801.867, 1190.005 800.020, 1190.461 794.898 C 1191.089 787.850, 1190.456 522.065, 1189.810 521.530 C 1189.639 521.389, 1188.935 521.476, 1188.244 521.722" stroke="none" fill="#029ffe" fill-rule="evenodd"/><path d="M 891.359 461.772 C 891.793 462.474, 890.005 463.094, 886.264 463.540 C 878.962 464.410, 865.937 470.543, 859.665 476.064 C 854.329 480.761, 846 491.923, 846 494.377 C 846 495.270, 845.637 496, 845.193 496 C 844.749 496, 843.565 499.162, 842.563 503.027 C 841.132 508.543, 840.859 512.254, 841.292 520.277 C 842.191 536.929, 847.328 547.673, 860.460 560.374 C 868.730 568.373, 878.364 571.543, 894 571.412 C 905.220 571.318, 911.913 569.504, 920.500 564.231 C 929.215 558.880, 942.169 543.700, 940.427 540.881 C 940.012 540.210, 940.115 539.953, 940.664 540.292 C 941.949 541.087, 943.966 535.334, 945.413 526.746 C 948.750 506.942, 941.003 486.893, 925.219 474.485 C 918.679 469.343, 906.424 463.878, 900.515 463.468 C 896.824 463.211, 893.897 462.464, 891.595 461.191 C 891.098 460.916, 890.992 461.177, 891.359 461.772 M 1190.435 551 C 1190.435 565.025, 1190.575 570.763, 1190.747 563.750 C 1190.919 556.737, 1190.919 545.263, 1190.747 538.250 C 1190.575 531.237, 1190.435 536.975, 1190.435 551 M 967.553 581.915 C 967.242 582.418, 967.328 583.019, 967.744 583.251 C 968.160 583.483, 967.938 583.535, 967.250 583.367 C 965.268 582.884, 962.948 584.107, 963.660 585.259 C 964.033 585.862, 963.830 586.013, 963.184 585.614 C 961.788 584.751, 956 587.634, 956 589.192 C 956 589.820, 955.715 590.048, 955.366 589.700 C 954.824 589.157, 931.288 600.848, 911.500 611.489 C 908.200 613.264, 899.554 617.775, 892.288 621.514 C 885.021 625.254, 879.307 628.688, 879.590 629.145 C 879.873 629.603, 879.518 629.757, 878.802 629.489 C 878.086 629.220, 873.563 631.050, 868.750 633.555 L 860 638.110 860 726.710 C 860 812.481, 860.058 815.257, 861.829 813.655 C 862.835 812.745, 864.121 812, 864.687 812 C 865.253 812, 868.817 810.382, 872.608 808.404 C 876.399 806.426, 884.450 802.283, 890.500 799.197 C 896.550 796.112, 901.725 793.342, 902 793.043 C 902.275 792.745, 908.350 789.507, 915.500 785.850 C 941.500 772.549, 957.581 764.218, 961.280 762.132 C 965.461 759.774, 967.498 759.386, 966.405 761.155 C 965.959 761.876, 966.131 762.037, 966.862 761.585 C 967.506 761.187, 967.803 760.490, 967.522 760.036 C 967.241 759.581, 967.684 758.952, 968.506 758.636 C 969.816 758.133, 970 747.152, 970 669.531 C 970 614.879, 969.640 581, 969.059 581 C 968.541 581, 967.864 581.412, 967.553 581.915 M 1190.407 656 C 1190.407 665.075, 1190.559 668.788, 1190.744 664.250 C 1190.929 659.712, 1190.929 652.288, 1190.744 647.750 C 1190.559 643.212, 1190.407 646.925, 1190.407 656 M 982.817 837.386 C 980.283 842.124, 978.583 846, 979.038 846 C 979.493 846, 980.150 845.103, 980.498 844.006 C 980.846 842.909, 981.664 841.429, 982.316 840.717 C 984.180 838.680, 986 835.162, 986 833.597 C 986 832.810, 986.518 831.994, 987.150 831.783 C 987.782 831.572, 988.103 830.809, 987.862 830.086 C 987.621 829.363, 985.351 832.648, 982.817 837.386 M 958.445 871.779 C 949.505 881.790, 937.835 892.180, 928.446 898.486 C 924.344 901.242, 921.530 903.677, 922.194 903.898 C 922.857 904.119, 923.572 903.782, 923.783 903.150 C 923.994 902.518, 924.825 902, 925.629 902 C 926.433 902, 928.216 900.875, 929.591 899.500 C 930.966 898.125, 932.500 897, 933 897 C 933.500 897, 935.034 895.875, 936.409 894.500 C 937.784 893.125, 939.406 892, 940.014 892 C 940.621 892, 940.840 891.550, 940.500 891 C 939.944 890.101, 941.257 889.567, 943.250 889.882 C 943.662 889.947, 943.887 889.508, 943.750 888.907 C 943.612 888.306, 944.366 887.293, 945.424 886.657 C 948.452 884.836, 959.914 873.247, 959.297 872.630 C 958.991 872.325, 959.925 871.536, 961.371 870.877 C 962.817 870.218, 964 868.889, 964 867.923 C 964 866.957, 964.563 865.966, 965.250 865.720 C 965.938 865.475, 966.244 864.994, 965.932 864.652 C 965.620 864.310, 962.251 867.517, 958.445 871.779 M 918.433 904.910 C 917.920 905.392, 914.984 907.112, 911.908 908.734 L 906.316 911.681 909.158 912.754 C 911.664 913.699, 912 913.600, 912 911.913 C 912 910.847, 912.690 910, 913.559 910 C 914.416 910, 914.840 909.550, 914.500 909 C 914.160 908.450, 914.616 908, 915.512 908 C 917.206 908, 920.567 905.234, 919.802 904.469 C 919.563 904.229, 918.947 904.428, 918.433 904.910" stroke="none" fill="#1379e8" fill-rule="evenodd"/><path d="M 871.852 466.871 C 860.586 472.474, 852.932 479.648, 846.111 491 C 843.769 494.898, 843.524 496, 845 496 C 845.550 496, 846 495.270, 846 494.377 C 846 491.925, 854.327 480.762, 859.656 476.072 C 862.246 473.792, 867.996 470.156, 872.433 467.992 C 876.870 465.829, 879.825 464.059, 879 464.061 C 878.175 464.062, 874.959 465.327, 871.852 466.871 M 841.679 502.350 C 839.614 508.901, 839.456 524.366, 841.379 531.591 C 843.735 540.436, 850.675 552.605, 856.404 557.934 C 858.389 559.781, 858.717 560.589, 857.761 561.279 C 856.876 561.917, 857.022 562.021, 858.250 561.626 C 859.212 561.316, 860 561.446, 860 561.915 C 860 562.383, 861.013 563.029, 862.250 563.349 C 863.941 563.787, 863.365 562.885, 859.929 559.716 C 847.594 548.338, 842.149 536.711, 841.295 519.923 C 840.879 511.729, 841.136 508.044, 842.438 503.566 C 844.566 496.245, 843.926 495.220, 841.679 502.350 M 960.461 762.598 C 956.632 764.578, 953.072 766.603, 952.550 767.098 C 950.873 768.690, 953.340 768.090, 956.569 766.121 C 958.257 765.092, 960.728 763.904, 962.061 763.481 C 964.314 762.765, 964.380 762.840, 962.992 764.548 C 962.171 765.558, 962.042 766.059, 962.703 765.662 C 963.920 764.931, 968.439 759, 967.779 759 C 967.582 759, 964.289 760.619, 960.461 762.598 M 943.500 771.408 C 940.200 773.164, 931.940 777.417, 925.144 780.861 C 918.348 784.304, 912.999 787.332, 913.257 787.590 C 913.728 788.061, 948.678 770.460, 950.450 768.858 C 952.296 767.190, 949.497 768.217, 943.500 771.408 M 894 797.218 C 890.975 798.855, 883.644 802.683, 877.709 805.723 C 871.775 808.764, 867.119 811.452, 867.363 811.696 C 867.607 811.940, 869.538 811.285, 871.653 810.239 C 879.823 806.202, 899.546 795.663, 900.450 794.852 C 902.270 793.219, 899.532 794.224, 894 797.218 M 981.379 838.234 C 979.053 842.732, 969.658 856.997, 967.109 859.903 C 965.949 861.225, 965 862.679, 965 863.134 C 965 864.472, 939.849 889.320, 935.757 892.026 C 933.698 893.387, 932.011 894.863, 932.007 895.307 C 931.997 896.489, 935.456 893.877, 943.970 886.274 C 953.599 877.676, 963.746 866.310, 971.698 855.218 C 977.747 846.779, 984.672 835, 983.584 835 C 983.291 835, 982.299 836.455, 981.379 838.234" stroke="none" fill="#054b88" fill-rule="evenodd"/><path d="M 0 672.001 L 0 1344.001 896.250 1343.751 L 1792.500 1343.500 1792.751 671.750 L 1793.001 0 896.501 0 L 0 0 0 672.001 M 0.497 672.500 C 0.497 1042.100, 0.611 1193.450, 0.750 1008.832 C 0.889 824.215, 0.889 521.815, 0.750 336.832 C 0.611 151.850, 0.497 302.900, 0.497 672.500 M 1128 400.142 C 1111.637 402.845, 1096.451 415.808, 1089.987 432.589 C 1086.759 440.969, 1086.709 455.840, 1089.878 464.890 C 1095.070 479.716, 1106.284 490.936, 1121.083 496.110 C 1130.265 499.320, 1145.067 499.280, 1153.500 496.023 C 1168.971 490.047, 1180.380 477.398, 1184.637 461.500 C 1186.381 454.989, 1186.346 442.890, 1184.565 436.198 C 1179.772 418.193, 1163.241 402.869, 1145.500 399.986 C 1138.569 398.860, 1135.601 398.887, 1128 400.142 M 802.500 447.639 C 717.632 452.271, 640.364 503.076, 603.522 578.472 C 592.590 600.843, 585.175 624.426, 581.503 648.500 C 579.217 663.480, 578.442 692.686, 579.906 708.626 C 586.403 779.378, 621.923 843.433, 678 885.523 C 742.635 934.036, 827.354 945.314, 899.280 914.979 L 907.061 911.697 911.780 914.410 C 933.206 926.723, 956.139 934.559, 984 939.085 C 993.802 940.678, 1028.290 940.677, 1038.500 939.084 C 1071.725 933.900, 1099.578 922.615, 1125 904.039 C 1133.010 898.185, 1149.078 882.730, 1155.710 874.500 C 1169.782 857.036, 1181.024 834.198, 1188.201 808.500 L 1190.435 800.500 1190.741 660.750 C 1190.909 583.888, 1190.759 521, 1190.407 521 C 1189.820 521, 1165.766 533.319, 1146.500 543.487 C 1126.602 553.989, 1116.399 559.319, 1101.500 566.993 C 1092.700 571.526, 1085.094 575.610, 1084.598 576.069 C 1084.071 576.557, 1083.788 613.067, 1083.917 663.712 C 1084.077 726.335, 1083.806 753.025, 1082.947 759.510 C 1080.480 778.121, 1074.078 791.166, 1061.101 804.018 C 1051.685 813.344, 1044.141 817.920, 1030.500 822.578 C 1023.707 824.899, 1020.389 825.378, 1008.500 825.758 C 995.570 826.171, 993.774 826, 985 823.517 C 967.599 818.594, 954.581 811.306, 942.348 799.640 L 935.909 793.500 952.954 776.124 L 970 758.748 970 669.874 C 970 620.993, 969.650 581, 969.223 581 C 968.795 581, 967.557 581.604, 966.473 582.343 C 962.990 584.713, 864.596 635.676, 861.771 636.573 C 860.094 637.105, 860 641.839, 860 726.024 L 860 814.913 852.250 817.342 C 847.987 818.678, 841.125 820.374, 837 821.111 C 826.233 823.035, 804.386 822.786, 794.232 820.622 C 743.817 809.882, 705.093 772.382, 692.502 722.108 C 680.727 675.094, 693.791 626.144, 726.968 592.968 C 745.223 574.713, 765.523 563.771, 794 556.839 C 797.552 555.974, 805.698 555.509, 817 555.526 C 832.640 555.550, 835.584 555.834, 844.700 558.200 C 850.310 559.656, 859.114 562.648, 864.264 564.848 C 876.615 570.125, 884.209 572.003, 893.144 571.988 C 917.058 571.950, 937.746 556.084, 944.532 532.579 C 947.135 523.564, 946.747 509.396, 943.646 500.234 C 936.837 480.111, 921.240 467.259, 898 462.621 C 893.875 461.798, 887.575 460.020, 884 458.670 C 863.717 451.011, 828.370 446.227, 802.500 447.639" stroke="none" fill="#fbfbfb" fill-rule="evenodd"/></svg>